<?xml version="1.0" standalone="no"?><!DOCTYPE svg PUBLIC "-//W3C//DTD SVG 1.1//EN" "http://www.w3.org/Graphics/SVG/1.1/DTD/svg11.dtd"><svg t="1590545900411" class="icon" viewBox="0 0 1024 1024" version="1.1" xmlns="http://www.w3.org/2000/svg" p-id="4948" width="32" height="32" xmlns:xlink="http://www.w3.org/1999/xlink"><defs><style type="text/css"></style></defs><path d="M512 960C264.96 960 64 759.04 64 512S264.96 64 512 64s448 200.96 448 448-200.96 448-448 448z m0-831.712C300.416 128.288 128.288 300.416 128.288 512c0 211.552 172.128 383.712 383.712 383.712 211.552 0 383.712-172.16 383.712-383.712S723.552 128.288 512 128.288z m214.976 264.896a31.968 31.968 0 0 0-45.248 0.256l-233.28 235.84-103.264-106.112a32 32 0 1 0-45.888 44.608l126.016 129.504c0.064 0.096 0.192 0.096 0.256 0.192l0.16 0.256c2.016 1.984 4.512 3.2 6.88 4.544 1.248 0.672 2.24 1.792 3.52 2.304a31.744 31.744 0 0 0 24.064 0.064c1.248-0.512 2.208-1.536 3.392-2.176 2.4-1.344 4.896-2.528 6.944-4.544 0.064-0.064 0.096-0.192 0.192-0.256 0.064-0.096 0.16-0.128 0.256-0.192l256.224-259.008a32.032 32.032 0 0 0-0.224-45.28z" p-id="4949" fill="#8a8a8a"></path></svg>